# xmcd CD database file
#
# Track frame offsets:
#	150
#	10700
#	22702
#	33460
#	45507
#	54987
#	66680
#	79487
#	92690
#	113152
#	124820
#	136540
#	147315
#	159487
#	171602
#	186090
#	200732
#	212892
#	225490
#	236850
#	248495
#	261267
#	277580
#	290802
#	303217
#
# Disc length: 4201 seconds
#
# Revision: 3
# Processed by: cddbd v1.5.1PL0 Copyright (c) Steve Scherf et al.
# Submitted via: CDex 1.51
#
DISCID=63106719
DTITLE=Various Artist - Original Country Oldies Volume 1 Disk 4
DYEAR=1900
DGENRE=Country
TTITLE0=Ferlin Huskey - Wings Of A Dove
TTITLE1=Statler Brothers - Class Of '57
TTITLE2=Leroy Van Dyke - Walk On By
TTITLE3=Hank Thompson - Wild Side Of Life
TTITLE4=Tom T. Hall - I Love
TTITLE5=John Conlee - Back Side Of Thirty
TTITLE6=Reba McEntire - You're The First Time I've Thought About Leaving
TTITLE7=Ernest Tubb - (Remember Me) I'm The One Who Loves You
TTITLE8=Merle Haggard - I think I'll Just Stay Here And Drink
TTITLE9=George Jones - She Thinks I Still Care
TTITLE10=Tennessee Ernie Ford - Sixteen Tons
TTITLE11=Faron Young - Hello Walls
TTITLE12=Patsy Cline - Crazy
TTITLE13=Hank Williams - Your Cheatin' Heart
TTITLE14=Glen Campbell - Rhinestone Cowboy
TTITLE15=Christy Lane - One Day At A Time
TTITLE16=Freddy Fender - Wasted Days and Wasted Nights
TTITLE17=Patsy Cline - I Fall To Pieces
TTITLE18=Donna Fargo - Happiest Girl In The Whole USA
TTITLE19=Jack Greene - There Goes My Everything
TTITLE20=Sonny James - Since I Met You, Baby
TTITLE21=Waylon Jennings - Rose In Paradise
TTITLE22=Crystal Gayle - Talking In Your Sleep
TTITLE23=Bill Anderson - I Love You Drops
TTITLE24=Mel Tillis - Saw Mill
EXTD=
EXTT0=
EXTT1=
EXTT2=
EXTT3=
EXTT4=
EXTT5=
EXTT6=
EXTT7=
EXTT8=
EXTT9=
EXTT10=
EXTT11=
EXTT12=
EXTT13=
EXTT14=
EXTT15=
EXTT16=
EXTT17=
EXTT18=
EXTT19=
EXTT20=
EXTT21=
EXTT22=
EXTT23=
EXTT24=
PLAYORDER=
